<svg xmlns="http://www.w3.org/2000/svg" viewBox="0 0 512 512" role="img">
<defs>
  <filter id="shadow" x="-20%" y="-20%" width="140%" height="140%"><feDropShadow dx="0" dy="6" stdDeviation="7" flood-opacity="0.28"/></filter>
  <linearGradient id="shine" x1="0" y1="0" x2="1" y2="1"><stop offset="0" stop-color="rgba(255,255,255,.34)"/><stop offset="1" stop-color="rgba(255,255,255,0)"/></linearGradient>
</defs>
<path filter="url(#shadow)" d="M256 26 440 92v136c0 118-76 219-184 258C148 447 72 346 72 228V92L256 26Z" fill="#7f1d1d"/>
<path d="M256 46 420 105v122c0 103-66 192-164 229C158 419 92 330 92 227V105L256 46Z" fill="#dc2626"/>
<path d="M112 119 256 68l144 51v31L256 99l-144 51v-31Z" fill="url(#shine)"/>

<path d="M222 152c15 40 17 78 8 117-6 27-24 58-50 75 41 20 111 20 152-1-27-18-47-49-52-76-8-41-5-78 10-115-22 16-47 20-68 0Z" fill="#fed7aa"/>
<path d="M178 158c-14-34-29-53-50-67 3 44 20 77 54 100M334 158c14-34 29-53 50-67-3 44-20 77-54 100" fill="#7f1d1d"/>
<path d="M206 231c27-10 74-10 100 0" stroke="#991b1b" stroke-width="13" stroke-linecap="round"/>
<circle cx="221" cy="259" r="10" fill="#111827"/><circle cx="291" cy="259" r="10" fill="#111827"/>
<path d="M239 301c11 7 24 7 35 0" stroke="#111827" stroke-width="11" stroke-linecap="round" fill="none"/>
<text x="256" y="410" text-anchor="middle" font-family="Arial, sans-serif" font-size="58" font-weight="900" fill="#fff">EG</text>

</svg>