<svg xmlns="http://www.w3.org/2000/svg" viewBox="0 0 512 512" role="img">
<defs>
  <filter id="shadow" x="-20%" y="-20%" width="140%" height="140%"><feDropShadow dx="0" dy="6" stdDeviation="7" flood-opacity="0.28"/></filter>
  <linearGradient id="shine" x1="0" y1="0" x2="1" y2="1"><stop offset="0" stop-color="rgba(255,255,255,.34)"/><stop offset="1" stop-color="rgba(255,255,255,0)"/></linearGradient>
</defs>
<path filter="url(#shadow)" d="M256 26 440 92v136c0 118-76 219-184 258C148 447 72 346 72 228V92L256 26Z" fill="#3b0764"/>
<path d="M256 46 420 105v122c0 103-66 192-164 229C158 419 92 330 92 227V105L256 46Z" fill="#7e22ce"/>
<path d="M112 119 256 68l144 51v31L256 99l-144 51v-31Z" fill="url(#shine)"/>

<path d="M158 284c15-70 60-118 98-118s83 48 98 118c-26 41-68 65-98 65s-72-24-98-65Z" fill="#111827"/>
<path d="M170 184 126 128c5 70 32 93 65 104M342 184l44-56c-5 70-32 93-65 104" fill="#111827"/>
<path d="M207 263c24-17 46-17 67 0M238 305c12 6 24 6 36 0" stroke="#c084fc" stroke-width="14" stroke-linecap="round" fill="none"/>
<path d="M178 261c27-19 57-18 80 2M334 261c-27-19-57-18-80 2" stroke="#f8fafc" stroke-width="12" stroke-linecap="round" fill="none" opacity=".95"/>
<circle cx="213" cy="260" r="9" fill="#a855f7"/><circle cx="299" cy="260" r="9" fill="#a855f7"/>
<text x="256" y="410" text-anchor="middle" font-family="Arial, sans-serif" font-size="58" font-weight="900" fill="#fff">AP</text>

</svg>