<svg xmlns="http://www.w3.org/2000/svg" viewBox="0 0 512 512" role="img">
<defs>
  <filter id="shadow" x="-20%" y="-20%" width="140%" height="140%"><feDropShadow dx="0" dy="6" stdDeviation="7" flood-opacity="0.28"/></filter>
  <linearGradient id="shine" x1="0" y1="0" x2="1" y2="1"><stop offset="0" stop-color="rgba(255,255,255,.34)"/><stop offset="1" stop-color="rgba(255,255,255,0)"/></linearGradient>
</defs>
<path filter="url(#shadow)" d="M256 26 440 92v136c0 118-76 219-184 258C148 447 72 346 72 228V92L256 26Z" fill="#9a3412"/>
<path d="M256 46 420 105v122c0 103-66 192-164 229C158 419 92 330 92 227V105L256 46Z" fill="#f97316"/>
<path d="M112 119 256 68l144 51v31L256 99l-144 51v-31Z" fill="url(#shine)"/>

<path d="M166 250h180v48c0 50-40 90-90 90s-90-40-90-90v-48Z" fill="#111827"/>
<path d="M145 250h222" stroke="#fff7ed" stroke-width="22" stroke-linecap="round"/>
<path d="M188 279h136M202 316h108" stroke="#f97316" stroke-width="14" stroke-linecap="round"/>
<path d="M213 212c-28-33 0-54 5-81 34 31 10 59 44 86 24-33 5-55 37-91 14 41 56 71 8 117-24 23-71 20-94-31Z" fill="#fed7aa"/>
<path d="M237 218c-10-25 6-42 13-64 17 26 11 47 35 65-20 13-32 13-48-1Z" fill="#fb923c"/>
<text x="256" y="430" text-anchor="middle" font-family="Arial, sans-serif" font-size="54" font-weight="900" fill="#fff">LP</text>

</svg>