<svg xmlns="http://www.w3.org/2000/svg" viewBox="0 0 512 512" role="img">
<defs>
  <filter id="shadow" x="-20%" y="-20%" width="140%" height="140%"><feDropShadow dx="0" dy="6" stdDeviation="7" flood-opacity="0.28"/></filter>
  <linearGradient id="shine" x1="0" y1="0" x2="1" y2="1"><stop offset="0" stop-color="rgba(255,255,255,.34)"/><stop offset="1" stop-color="rgba(255,255,255,0)"/></linearGradient>
</defs>
<path filter="url(#shadow)" d="M256 26 440 92v136c0 118-76 219-184 258C148 447 72 346 72 228V92L256 26Z" fill="#075985"/>
<path d="M256 46 420 105v122c0 103-66 192-164 229C158 419 92 330 92 227V105L256 46Z" fill="#0ea5e9"/>
<path d="M112 119 256 68l144 51v31L256 99l-144 51v-31Z" fill="url(#shine)"/>

<path d="M157 318c14-84 54-139 99-139s85 55 99 139c-47 39-151 39-198 0Z" fill="#dff6ff"/>
<path d="M256 183v139M201 204c-5 49 2 89 28 125M311 204c5 49-2 89-28 125" stroke="#38bdf8" stroke-width="13" stroke-linecap="round" fill="none"/>
<circle cx="256" cy="296" r="37" fill="#fff" stroke="#bae6fd" stroke-width="10"/>
<path d="M182 347c44 28 104 32 148 0" stroke="#0ea5e9" stroke-width="14" stroke-linecap="round" fill="none"/>
<text x="256" y="420" text-anchor="middle" font-family="Arial, sans-serif" font-size="58" font-weight="900" fill="#fff">PU</text>

</svg>