<svg xmlns="http://www.w3.org/2000/svg" viewBox="0 0 512 512" role="img">
<defs>
  <filter id="shadow" x="-20%" y="-20%" width="140%" height="140%"><feDropShadow dx="0" dy="6" stdDeviation="7" flood-opacity="0.28"/></filter>
  <linearGradient id="shine" x1="0" y1="0" x2="1" y2="1"><stop offset="0" stop-color="rgba(255,255,255,.34)"/><stop offset="1" stop-color="rgba(255,255,255,0)"/></linearGradient>
</defs>
<path filter="url(#shadow)" d="M256 26 440 92v136c0 118-76 219-184 258C148 447 72 346 72 228V92L256 26Z" fill="#14532d"/>
<path d="M256 46 420 105v122c0 103-66 192-164 229C158 419 92 330 92 227V105L256 46Z" fill="#16a34a"/>
<path d="M112 119 256 68l144 51v31L256 99l-144 51v-31Z" fill="url(#shine)"/>

<circle cx="256" cy="254" r="98" fill="#92400e"/>
<circle cx="220" cy="221" r="14" fill="#fbbf24"/><circle cx="292" cy="229" r="13" fill="#fbbf24"/><circle cx="248" cy="291" r="15" fill="#fbbf24"/>
<path d="M176 189c31-45 80-61 134-47" stroke="#bbf7d0" stroke-width="18" stroke-linecap="round" fill="none"/>
<path d="M315 164c37-11 67 6 84 40-43 12-68 3-84-40Z" fill="#22c55e"/>
<path d="M164 330c50 42 134 50 194 0" stroke="#dcfce7" stroke-width="14" stroke-linecap="round" fill="none"/>
<text x="256" y="420" text-anchor="middle" font-family="Arial, sans-serif" font-size="58" font-weight="900" fill="#fff">SP</text>

</svg>