<svg xmlns="http://www.w3.org/2000/svg" viewBox="0 0 512 512" role="img">
<defs>
  <filter id="shadow" x="-20%" y="-20%" width="140%" height="140%"><feDropShadow dx="0" dy="6" stdDeviation="7" flood-opacity="0.28"/></filter>
  <linearGradient id="shine" x1="0" y1="0" x2="1" y2="1"><stop offset="0" stop-color="rgba(255,255,255,.34)"/><stop offset="1" stop-color="rgba(255,255,255,0)"/></linearGradient>
</defs>
<path filter="url(#shadow)" d="M256 26 440 92v136c0 118-76 219-184 258C148 447 72 346 72 228V92L256 26Z" fill="#0f3e9d"/>
<path d="M256 46 420 105v122c0 103-66 192-164 229C158 419 92 330 92 227V105L256 46Z" fill="#1d4ed8"/>
<path d="M112 119 256 68l144 51v31L256 99l-144 51v-31Z" fill="url(#shine)"/>

<path d="M146 266c35-54 93-86 155-75 40 7 72 30 93 54-21 27-56 50-96 55-59 8-115-14-152-34Z" fill="#dbeafe"/>
<path d="M122 266c23-26 47-42 72-50-14 20-14 63 0 84-25-8-49-24-72-34Z" fill="#1d4ed8"/>
<circle cx="337" cy="244" r="12" fill="#0f172a"/>
<path d="M232 215c-10 35-7 64 8 91M278 207c-13 31-15 64-2 98" stroke="#2563eb" stroke-width="16" stroke-linecap="round" fill="none"/>
<path d="M150 331c60 20 148 19 215-13" stroke="#93c5fd" stroke-width="18" stroke-linecap="round" fill="none"/>
<text x="256" y="410" text-anchor="middle" font-family="Arial, sans-serif" font-size="58" font-weight="900" fill="#fff">ST</text>

</svg>